<svg id="cinema" xmlns="http://www.w3.org/2000/svg" width="332" height="332" viewBox="0 0 332 332">
  <g id="Grupo_128" data-name="Grupo 128">
    <g id="Grupo_127" data-name="Grupo 127">
      <g id="Grupo_126" data-name="Grupo 126">
        <g id="Grupo_125" data-name="Grupo 125">
          <g id="Grupo_124" data-name="Grupo 124">
            <g id="Grupo_123" data-name="Grupo 123">
              <g id="Grupo_122" data-name="Grupo 122">
                <g id="Grupo_121" data-name="Grupo 121">
                  <g id="Grupo_120" data-name="Grupo 120">
                    <g id="Grupo_119" data-name="Grupo 119">
                      <g id="Grupo_118" data-name="Grupo 118">
                        <g id="Grupo_117" data-name="Grupo 117">
                          <g id="Grupo_116" data-name="Grupo 116">
                            <g id="Grupo_115" data-name="Grupo 115">
                              <circle id="Elipse_108" data-name="Elipse 108" cx="166" cy="166" r="166" fill="#6c67d2"/>
                            </g>
                          </g>
                        </g>
                      </g>
                    </g>
                  </g>
                </g>
              </g>
            </g>
          </g>
        </g>
      </g>
    </g>
  </g>
  <path id="Trazado_2162" data-name="Trazado 2162" d="M259.472,121.73,246.98,109.239l-.715.715-14.54-14.54L229.21,97.93,213.97,82.69,140.255,266.821,118.441,295.1l63.749,63.749A166,166,0,0,0,370.342,226.578L262.484,118.72Z" transform="translate(-41.721 -29.128)" fill="#534dca"/>
  <path id="Trazado_2163" data-name="Trazado 2163" d="M214.54,76.188a13.914,13.914,0,0,0-14.62,15.418,13.911,13.911,0,0,0-11.735,20.227,13.914,13.914,0,0,0-25.828,4.878,13.92,13.92,0,0,0-5.576,15.882,13.929,13.929,0,1,0,13.266,23.377,13.908,13.908,0,0,0,20.1-.5,13.955,13.955,0,0,0,13.016-2.029,13.922,13.922,0,0,0,11.379,5.458l7.1-38.747Z" transform="translate(-51.532 -26.83)" fill="#fd5"/>
  <g id="Grupo_129" data-name="Grupo 129" transform="translate(127.467 49.359)">
    <path id="Trazado_2164" data-name="Trazado 2164" d="M367.786,365.085a10.377,10.377,0,1,0-19.751.426A10.372,10.372,0,1,0,358.285,382.7a10.373,10.373,0,1,0,9.5-17.615Z" transform="translate(-247.389 -173.263)" fill="#edbe00"/>
    <path id="Trazado_2165" data-name="Trazado 2165" d="M403.538,375.616a8.524,8.524,0,1,0-11.72-11.225,8.52,8.52,0,1,0-4.03,15.938,8.521,8.521,0,1,0,15.75-4.713Z" transform="translate(-261.01 -176.028)" fill="#edbe00"/>
    <path id="Trazado_2166" data-name="Trazado 2166" d="M311.9,132.078a13.916,13.916,0,0,0-14.593-19.794,13.926,13.926,0,0,0-14.247-9.245,13.922,13.922,0,0,0-18.236-12.98A13.821,13.821,0,0,0,251.653,76.2v82.71a13.865,13.865,0,0,0,5.9-1.463,13.725,13.725,0,0,0,12.106-2.3,13.917,13.917,0,0,0,21.744.456,13.966,13.966,0,0,0,4.2-2.153,13.931,13.931,0,1,0,16.3-21.376Z" transform="translate(-216.113 -76.201)" fill="#edbe00"/>
    <path id="Trazado_2167" data-name="Trazado 2167" d="M223.26,148.749a9.072,9.072,0,1,0-15.011-8.541,9.067,9.067,0,1,0-.019,17.5,9.068,9.068,0,1,0,15.03-8.956Z" transform="translate(-196.785 -96.206)" fill="#edbe00"/>
  </g>
  <path id="Trazado_2168" data-name="Trazado 2168" d="M294.472,179.479a9.072,9.072,0,1,0,8.3-15.146,9.067,9.067,0,1,0-17.494.262,9.068,9.068,0,1,0,9.2,14.885Z" transform="translate(-98.2 -53.898)" fill="#ff9e22"/>
  <path id="Trazado_2169" data-name="Trazado 2169" d="M212.9,325.931H186.073L179.6,253.754l6.478-64.545,13.413-7.632,13.414,7.632,6.478,64.545Z" transform="translate(-63.263 -63.961)" fill="#fff"/>
  <path id="Trazado_2170" data-name="Trazado 2170" d="M295.731,325.931H268.9l-6.477-72.177,6.477-64.545,13.414-7.632,13.414,7.632,6.477,64.545Z" transform="translate(-92.44 -63.961)" fill="#e6e6ff"/>
  <g id="Grupo_130" data-name="Grupo 130" transform="translate(95.984 117.616)">
    <path id="Trazado_2171" data-name="Trazado 2171" d="M175.007,325.931H148.181V189.209l13.413-7.632,13.414,7.632Z" transform="translate(-148.181 -181.577)" fill="#ff5b5b"/>
    <path id="Trazado_2172" data-name="Trazado 2172" d="M244.382,325.931H231.011V189.209l13.414-7.632,7.06,72.177Z" transform="translate(-177.358 -181.577)" fill="#ff5b5b"/>
    <path id="Trazado_2173" data-name="Trazado 2173" d="M340.668,325.931H313.842V189.209l13.413-7.632,13.414,7.632Z" transform="translate(-206.536 -181.577)" fill="#c8001c"/>
  </g>
  <path id="Trazado_2174" data-name="Trazado 2174" d="M141.556,376.043a10.487,10.487,0,1,0-19.965,0,10.482,10.482,0,1,0,9.983,17.591,10.483,10.483,0,1,0,9.982-17.591Z" transform="translate(-40.051 -127.638)" fill="#fd5"/>
  <path id="Trazado_2175" data-name="Trazado 2175" d="M200.822,420.052a10.487,10.487,0,1,0-4.478-19.456,10.482,10.482,0,1,0-14.9,13.674,10.483,10.483,0,1,0,19.381,5.782Z" transform="translate(-62.189 -139.109)" fill="#fd5"/>
  <path id="Trazado_2176" data-name="Trazado 2176" d="M265.109,325.931H251.653l.043-144.354,13.413,7.632Z" transform="translate(-88.646 -63.961)" fill="#c8001c"/>
</svg>
